<svg xmlns="http://www.w3.org/2000/svg" data-name="Layer 1" viewBox="0 0 48 60" x="0px" y="0px"><title>7-bomb</title><rect x="8.08" y="12.64" width="1.64" height="1.64"/><rect x="9.72" y="10.54" width="1.87" height="2.11"/><rect x="8.08" y="1.87" width="1.64" height="1.64"/><rect x="9.72" y="3.51" width="1.87" height="1.87"/><polygon points="7.96 7.02 9.72 7.02 9.72 9.13 7.96 9.13 6.21 9.13 6.21 7.02 7.96 7.02"/><polygon points="15.1 14.25 15.1 16.16 13.23 16.16 13.23 14.25 13.23 12.64 15.1 12.64 15.1 14.25"/><rect x="13.23" y="7.02" width="1.87" height="2.11"/><polygon points="15.1 1.82 15.1 3.51 13.23 3.51 13.23 1.82 13.23 0 15.1 0 15.1 1.82"/><rect x="15.1" y="9.13" width="1.64" height="1.4"/><rect x="16.74" y="10.54" width="1.87" height="2.11"/><polygon points="20.48 9.13 22.2 9.13 24 9.13 24 10.54 22.2 10.54 20.48 10.54 18.61 10.54 18.61 9.13 20.48 9.13"/><polygon points="25.87 12.53 25.87 14.28 24 14.28 24 12.53 24 10.54 25.87 10.54 25.87 12.53"/><rect x="25.87" y="14.28" width="1.64" height="1.87"/><path d="M39.92,30.2V26.69H38.28V24.82H36.41V23.18H32.9V19.43H29.39V16.16H27.51v3.27H24v3.75H20.49v1.64H18.61v1.87H16.74V30.2H15.1v8.9h1.64v3.51h1.87v1.88h1.88v1.64H24V48h8.9V46.13h3.51V44.49h1.87V42.61h1.64V39.1H41.8V30.2Zm-14,1.64H24v1.88H20.49V31.84H18.85V28.33h1.64V26.69H24v1.64h1.87Z"/><text x="0" y="63" fill="#000000" font-size="5px" font-weight="bold" font-family="'Helvetica Neue', Helvetica, Arial-Unicode, Arial, Sans-serif">Created by tulpahn</text><text x="0" y="68" fill="#000000" font-size="5px" font-weight="bold" font-family="'Helvetica Neue', Helvetica, Arial-Unicode, Arial, Sans-serif">from the Noun Project</text></svg>